# xmcd CD database file
#
# Track frame offsets:
#	150
#	21440
#	40087
#	65610
#	85510
#	105685
#	124915
#	151737
#	173017
#	193475
#	213567
#	236750
#	254642
#	275982
#	291802
#
# Disc length: 4201 seconds
#
# Revision: 0
# Processed by: cddbd v1.5PL3 Copyright (c) Steve Scherf et al.
# Submitted via: CDex 1.50
#
DISCID=e410670f
DTITLE=ICE - ICE TRACKS Vol.1
DYEAR=1998
DGENRE=Pop
TTITLE0=FUTURE
TTITLE1=HEART BEAT VOICE
TTITLE2=MOON CHILD
TTITLE3=ANALOG QUEEN
TTITLE4=WAKE UP EVERYBODY
TTITLE5=SLOW LOVE
TTITLE6=kozmic blue
TTITLE7=LIFE 〜STANDIN' ON THIS WORLD
TTITLE8=BABY MAYBE
TTITLE9=TOUCH ME, SQUEEZE ME (Part 2)
TTITLE10=GET DOWN, GET DOWN, GET DOWN
TTITLE11=Love Makes Me Run
TTITLE12=Soul Of Joy
TTITLE13=CAN'T STOP THE MUSIC
TTITLE14=GET ON THE FLOOR
EXTD=YEAR: 1998
EXTT0=
EXTT1=
EXTT2=
EXTT3=
EXTT4=
EXTT5=
EXTT6=
EXTT7=
EXTT8=
EXTT9=
EXTT10=
EXTT11=
EXTT12=
EXTT13=
EXTT14=
PLAYORDER=
